<?xml version="1.0" encoding="UTF-8"?>
<svg xmlns="http://www.w3.org/2000/svg" xmlns:xlink="http://www.w3.org/1999/xlink" width="854" height="480" viewBox="0 0 854 480">
<defs>
<g>
<g id="glyph-0-0">
<path d="M 0.546875 0.5 C 0.546875 0.652344 0.628906 0.757812 0.800781 0.816406 C 0.972656 0.875 1.167969 0.902344 1.390625 0.902344 C 1.691406 0.902344 1.933594 0.851562 2.121094 0.746094 C 2.308594 0.644531 2.402344 0.515625 2.402344 0.363281 C 2.402344 0.242188 2.328125 0.160156 2.175781 0.121094 C 2.082031 0.0976562 1.902344 0.0859375 1.640625 0.0820312 C 1.574219 0.078125 1.503906 0.078125 1.429688 0.0742188 C 1.355469 0.0703125 1.289062 0.0703125 1.226562 0.0664062 C 1.1875 0.0625 1.121094 0.0546875 1.035156 0.0429688 C 0.945312 0.03125 0.878906 0.0195312 0.835938 0.0117188 C 0.8125 0.0117188 0.761719 0.0664062 0.675781 0.183594 C 0.589844 0.296875 0.546875 0.402344 0.546875 0.5 Z M 0.898438 -0.910156 C 0.734375 -0.964844 0.605469 -1.0625 0.515625 -1.203125 C 0.421875 -1.339844 0.378906 -1.496094 0.378906 -1.671875 C 0.378906 -1.882812 0.460938 -2.082031 0.628906 -2.273438 C 0.796875 -2.464844 1.035156 -2.558594 1.34375 -2.558594 C 1.476562 -2.558594 1.621094 -2.527344 1.78125 -2.464844 C 1.9375 -2.402344 2.089844 -2.371094 2.238281 -2.371094 C 2.277344 -2.371094 2.332031 -2.371094 2.410156 -2.375 C 2.488281 -2.378906 2.542969 -2.378906 2.578125 -2.378906 L 2.609375 -2.378906 L 2.609375 -2.160156 L 2.140625 -2.160156 C 2.171875 -2.082031 2.199219 -2.015625 2.214844 -1.960938 C 2.246094 -1.855469 2.261719 -1.757812 2.261719 -1.664062 C 2.261719 -1.457031 2.175781 -1.265625 2.007812 -1.09375 C 1.835938 -0.921875 1.605469 -0.835938 1.316406 -0.835938 C 1.269531 -0.835938 1.1875 -0.84375 1.070312 -0.859375 C 1.019531 -0.859375 0.949219 -0.816406 0.863281 -0.726562 C 0.777344 -0.636719 0.734375 -0.566406 0.734375 -0.511719 C 0.734375 -0.453125 0.796875 -0.410156 0.925781 -0.382812 C 1.007812 -0.363281 1.101562 -0.355469 1.203125 -0.355469 C 1.667969 -0.355469 1.980469 -0.328125 2.148438 -0.277344 C 2.421875 -0.191406 2.558594 -0.0078125 2.558594 0.269531 C 2.558594 0.554688 2.398438 0.785156 2.078125 0.953125 C 1.757812 1.125 1.4375 1.210938 1.113281 1.210938 C 0.816406 1.210938 0.582031 1.148438 0.40625 1.03125 C 0.234375 0.910156 0.148438 0.78125 0.148438 0.652344 C 0.148438 0.585938 0.167969 0.523438 0.214844 0.460938 C 0.261719 0.398438 0.351562 0.304688 0.488281 0.183594 L 0.667969 0.0234375 L 0.699219 -0.0117188 C 0.617188 -0.0429688 0.554688 -0.0742188 0.511719 -0.105469 C 0.441406 -0.160156 0.402344 -0.226562 0.402344 -0.296875 C 0.402344 -0.363281 0.433594 -0.4375 0.496094 -0.519531 C 0.558594 -0.601562 0.695312 -0.730469 0.898438 -0.910156 Z M 1.414062 -0.964844 C 1.511719 -0.964844 1.597656 -0.992188 1.664062 -1.046875 C 1.773438 -1.132812 1.824219 -1.285156 1.824219 -1.5 C 1.824219 -1.671875 1.78125 -1.867188 1.695312 -2.082031 C 1.605469 -2.296875 1.460938 -2.402344 1.257812 -2.402344 C 1.078125 -2.402344 0.957031 -2.320312 0.890625 -2.152344 C 0.855469 -2.0625 0.839844 -1.953125 0.839844 -1.824219 C 0.839844 -1.601562 0.890625 -1.402344 1 -1.230469 C 1.105469 -1.054688 1.242188 -0.964844 1.414062 -0.964844 Z "/>
</g>
</g>
</defs>
<g fill="rgb(100%, 100%, 100%)" fill-opacity="1">
<use xlink:href="#glyph-0-0" x="30" y="24.166992"/>
</g>
</svg>
